# xmcd CD database file
#
# Track frame offsets:
#	150
#	14965
#	28213
#	42492
#	54621
#	68331
#	80549
#	93643
#	109214
#	123134
#	138176
#	152082
#	166616
#	176833
#	188822
#	203743
#	214827
#	229715
#
# Disc length: 3189 seconds
#
# Revision: 0
# Processed by: cddbd v1.5.2PL0 Copyright (c) Steve Scherf et al.
# Submitted via: CDex 1.51
#
DISCID=f80c7312
DTITLE=Glenn Miller - Masters of Music CD 1
DYEAR=2005
DGENRE=Jazz
TTITLE0=Perfida
TTITLE1=It Happened in Sun Valley
TTITLE2=Farewell Blues
TTITLE3=Knit One - Purl Two
TTITLE4=Delilah
TTITLE5=I'm Old Fashioned
TTITLE6=Goodbye, Little Darlin', Goodbye
TTITLE7=Serenade in Blue
TTITLE8=Careless
TTITLE9=Sweet Potatoe Piper
TTITLE10=I Beg Your Pardon
TTITLE11=A String on Pearls
TTITLE12=Old Joe Black
TTITLE13=Lullaby of the Rain
TTITLE14=A Blue World
TTITLE15=Slumber Song
TTITLE16=Moonlight Cocktail
TTITLE17=Be Happy
EXTD=YEAR: 2005
EXTT0=
EXTT1=
EXTT2=
EXTT3=
EXTT4=
EXTT5=
EXTT6=
EXTT7=
EXTT8=
EXTT9=
EXTT10=
EXTT11=
EXTT12=
EXTT13=
EXTT14=
EXTT15=
EXTT16=
EXTT17=
PLAYORDER=
